<mxfile host="app.diagrams.net" agent="Mozilla/5.0 (Macintosh; Intel Mac OS X 10_15_7) AppleWebKit/605.1.15 (KHTML, like Gecko) Version/18.5 Safari/605.1.15" version="28.1.2">
  <diagram name="Page-1" id="Qam7nDXQRzvPjK-rQr3b">
    <mxGraphModel dx="1803" dy="671" grid="1" gridSize="10" guides="1" tooltips="1" connect="1" arrows="1" fold="1" page="1" pageScale="1" pageWidth="827" pageHeight="1169" math="0" shadow="0">
      <root>
        <mxCell id="0" />
        <mxCell id="1" parent="0" />
        <mxCell id="sAuoSrtStjOteJpBVHAH-24" style="edgeStyle=orthogonalEdgeStyle;rounded=0;orthogonalLoop=1;jettySize=auto;html=1;exitX=0.5;exitY=1;exitDx=0;exitDy=0;entryX=0.5;entryY=0;entryDx=0;entryDy=0;" edge="1" parent="1" source="sAuoSrtStjOteJpBVHAH-1" target="sAuoSrtStjOteJpBVHAH-18">
          <mxGeometry relative="1" as="geometry" />
        </mxCell>
        <mxCell id="sAuoSrtStjOteJpBVHAH-25" style="edgeStyle=orthogonalEdgeStyle;rounded=0;orthogonalLoop=1;jettySize=auto;html=1;exitX=0.5;exitY=1;exitDx=0;exitDy=0;entryX=0.5;entryY=0;entryDx=0;entryDy=0;" edge="1" parent="1" source="sAuoSrtStjOteJpBVHAH-1" target="sAuoSrtStjOteJpBVHAH-19">
          <mxGeometry relative="1" as="geometry" />
        </mxCell>
        <mxCell id="sAuoSrtStjOteJpBVHAH-1" value="" style="rounded=0;whiteSpace=wrap;html=1;" vertex="1" parent="1">
          <mxGeometry x="354" y="70" width="120" height="60" as="geometry" />
        </mxCell>
        <mxCell id="sAuoSrtStjOteJpBVHAH-2" value="&lt;font style=&quot;font-size: 22px;&quot;&gt;Start&lt;/font&gt;&lt;div&gt;&lt;br&gt;&lt;/div&gt;" style="text;html=1;align=center;verticalAlign=middle;whiteSpace=wrap;rounded=0;strokeWidth=5;" vertex="1" parent="1">
          <mxGeometry x="391" y="87.5" width="46" height="25" as="geometry" />
        </mxCell>
        <mxCell id="sAuoSrtStjOteJpBVHAH-5" value="" style="rounded=0;whiteSpace=wrap;html=1;" vertex="1" parent="1">
          <mxGeometry x="-80" y="410" width="120" height="30" as="geometry" />
        </mxCell>
        <mxCell id="sAuoSrtStjOteJpBVHAH-8" value="&lt;font style=&quot;font-size: 18px;&quot;&gt;Commands&lt;/font&gt;" style="text;html=1;align=center;verticalAlign=middle;whiteSpace=wrap;rounded=0;" vertex="1" parent="1">
          <mxGeometry x="-50" y="410" width="60" height="30" as="geometry" />
        </mxCell>
        <mxCell id="sAuoSrtStjOteJpBVHAH-10" value="" style="rounded=0;whiteSpace=wrap;html=1;" vertex="1" parent="1">
          <mxGeometry x="54" y="410" width="120" height="30" as="geometry" />
        </mxCell>
        <mxCell id="sAuoSrtStjOteJpBVHAH-14" value="&lt;font style=&quot;font-size: 14px;&quot;&gt;Barcha spiskalar&lt;/font&gt;" style="text;html=1;align=center;verticalAlign=middle;whiteSpace=wrap;rounded=0;" vertex="1" parent="1">
          <mxGeometry x="84" y="410" width="60" height="30" as="geometry" />
        </mxCell>
        <mxCell id="sAuoSrtStjOteJpBVHAH-15" value="" style="rounded=0;whiteSpace=wrap;html=1;" vertex="1" parent="1">
          <mxGeometry x="200" y="410" width="120" height="30" as="geometry" />
        </mxCell>
        <mxCell id="sAuoSrtStjOteJpBVHAH-16" value="&lt;font style=&quot;font-size: 14px;&quot;&gt;Barcha spiskalar&lt;/font&gt;" style="text;html=1;align=center;verticalAlign=middle;whiteSpace=wrap;rounded=0;" vertex="1" parent="1">
          <mxGeometry x="230" y="410" width="60" height="30" as="geometry" />
        </mxCell>
        <mxCell id="sAuoSrtStjOteJpBVHAH-32" style="edgeStyle=orthogonalEdgeStyle;rounded=0;orthogonalLoop=1;jettySize=auto;html=1;exitX=0.5;exitY=1;exitDx=0;exitDy=0;" edge="1" parent="1" source="sAuoSrtStjOteJpBVHAH-18">
          <mxGeometry relative="1" as="geometry">
            <mxPoint x="130" y="370" as="targetPoint" />
          </mxGeometry>
        </mxCell>
        <mxCell id="sAuoSrtStjOteJpBVHAH-18" value="" style="rounded=0;whiteSpace=wrap;html=1;" vertex="1" parent="1">
          <mxGeometry x="250" y="170" width="120" height="60" as="geometry" />
        </mxCell>
        <mxCell id="sAuoSrtStjOteJpBVHAH-19" value="" style="rounded=0;whiteSpace=wrap;html=1;" vertex="1" parent="1">
          <mxGeometry x="460" y="170" width="140" height="60" as="geometry" />
        </mxCell>
        <mxCell id="sAuoSrtStjOteJpBVHAH-21" value="&lt;font style=&quot;font-size: 18px;&quot;&gt;USER&lt;/font&gt;" style="text;html=1;align=center;verticalAlign=middle;whiteSpace=wrap;rounded=0;" vertex="1" parent="1">
          <mxGeometry x="500" y="185" width="60" height="30" as="geometry" />
        </mxCell>
        <mxCell id="sAuoSrtStjOteJpBVHAH-22" value="&lt;font style=&quot;font-size: 18px;&quot;&gt;SUPERADMIN&lt;/font&gt;" style="text;html=1;align=center;verticalAlign=middle;whiteSpace=wrap;rounded=0;" vertex="1" parent="1">
          <mxGeometry x="280" y="185" width="60" height="30" as="geometry" />
        </mxCell>
      </root>
    </mxGraphModel>
  </diagram>
</mxfile>
